<svg xmlns="http://www.w3.org/2000/svg" viewBox="0 0 150 56" fill="none"><g fill="#000"><path d="M60 13h6v24h6V7h-6a6.02 6.02 0 0 0-6 6zm18 24h6V25a6.02 6.02 0 0 0-6-6v18zm12-18v18h6V25h6v6a6.02 6.02 0 0 0 6 6V25a6.02 6.02 0 0 0-6-6H90zm54 0h-6v-6a6.02 6.02 0 0 0-6-6v24h-12v-6h6v-6h-6a6.02 6.02 0 0 0-6 6v6a6.02 6.02 0 0 0 6 6h18V25h6v6a6.02 6.02 0 0 0 6 6V25a6.02 6.02 0 0 0-6-6z"/><path d="M78 13h6a6.02 6.02 0 0 0-6-6v6z"/></g><path d="M68.487 47.136H66v-4.072h2.427v.669h-1.69v1.012h1.51v.669h-1.51v1.053h1.75v.669zm10.9-4.072h.863l-1.414 1.995 1.468 2.077h-.863l-1.085-1.53-1.078 1.53h-.863l1.468-2.077-1.402-1.995h.863l1.031 1.472 1.013-1.472zm11.736 3.141l.282.535c-.132.136-.322.246-.569.332s-.501.128-.773.128c-.639 0-1.16-.192-1.564-.576s-.599-.892-.599-1.524c0-.605.19-1.107.569-1.507S89.37 43 90.045 43c.535 0 .961.138 1.276.413l-.329.529c-.284-.182-.599-.273-.947-.273a1.32 1.32 0 0 0-.983.39c-.256.26-.383.607-.383 1.041 0 .427.134.772.401 1.035s.621.395 1.049.395a1.64 1.64 0 0 0 .995-.326zm11.889.931h-.731v-1.739h-1.917v1.739h-.737v-4.072h.737v1.664h1.917v-1.664h.731v4.072zm8.855 0h-.743l1.773-4.084h.647l1.774 4.084h-.785l-.437-1.041h-1.792l-.437 1.041zm1.947-1.71l-.611-1.449-.617 1.449h1.228zm13.205-2.362v4.072h-.588l-2.306-2.821v2.821h-.689v-4.072h.587l2.307 2.833v-2.833h.689zm11.408 2.548h-1.013v-.669h1.702v1.687c-.18.175-.42.314-.719.419s-.583.151-.851.151c-.679 0-1.214-.19-1.606-.57s-.581-.886-.581-1.53c0-.597.192-1.096.575-1.495s.889-.605 1.516-.605c.535 0 .985.138 1.348.413l-.311.57c-.104-.097-.242-.173-.414-.227a1.65 1.65 0 0 0-.533-.087c-.419 0-.757.128-1.013.384s-.389.601-.389 1.047c0 .431.13.778.389 1.041s.6.39 1.031.39c.152 0 .316-.027.491-.081s.302-.124.378-.198v-.64zM150 47.136h-2.487v-4.072h2.427v.669h-1.69v1.012h1.51v.669h-1.51v1.053H150v.669z" fill="#2f7aea"/><path d="M13.927 30.553l1.4-10.544-12.162-8.444 11.113 3.762 2.625-4.025 9.581-5.95L47.614 16.99l1.094 17.762-9.406 13.081-7.437 1.137 3.85-7.044v-6.781l-2.8-5.294-2.844-1.881-4.375 4.506v4.769l-3.412 3.194-4.331.525-1.925 1.094-3.15-1.006-1.312-4.725 2.363-3.325v-2.45z" fill="#fff"/><path d="M33.351 11.478c-2.319-.481-4.856-.35-4.856-.35s-.831 3.85-5.994 4.856c.044 0 6.825 2.319 10.85-4.506zm2.1 34.913c2.8-2.187 4.9-5.206 5.862-8.619.044-.131.438-.35.7-.525.438-.262.875-.481.962-.831a18.22 18.22 0 0 0 .263-3.106c0-.394-.394-.787-.788-1.181-.306-.262-.612-.569-.612-.788-.437-3.981-2.275-7.7-5.206-10.412l-.306.306c2.844 2.669 4.681 6.3 5.075 10.15.044.35.394.7.744 1.05.306.263.656.656.656.831a17.5 17.5 0 0 1-.263 3.019c-.044.175-.437.35-.744.525-.437.219-.831.438-.919.788a16.17 16.17 0 0 1-6.65 9.056l3.325-7.219-.175-6.475-5.556-5.381-3.15.438-3.456 5.6s1.619 2.056-.656 4.463c-2.231 2.362-3.981 2.887-3.981 2.887l-1.619-.875c.481-.612 1.444-1.531 2.188-2.144 1.269-1.05 2.538-1.138 2.538-2.275.044-2.363-2.494-1.706-2.494-1.706l-.919.875-.394 3.238-1.925 2.406-.219-.044-3.15-.7s1.925-1.006 2.231-2.144c.306-1.094-.613-4.725-.656-4.944.044.044.919.788 1.313 2.013.7-1.925 1.619-3.763 1.881-3.937s3.806-2.056 3.806-2.056l-1.181 3.106.875-.481 2.1-5.163s2.056-1.006 3.588-1.006c2.756-.044 6.825-3.413 4.988-9.45.525.219 9.625 4.769 11.2 13.694 1.181 6.869-2.712 13.3-9.275 17.019z" fill="#94a6c3"/><path d="M25.039 12.44c1.006-1.181.612-2.931.612-2.931L22.72 13.84c-.044 0 1.05.044 2.319-1.4zm-9.844 23.669l.35-1.75-1.575 2.887c-.131.394.088 1.094.656 1.05s1.269-.875 1.269-1.488c0-.787-.7-.7-.7-.7zM41.183 8.284l4.463.35c-5.119-4.025-9.975-5.206-13.913-5.206-5.425 0-9.1 2.231-9.319 2.363l1.706-2.712s-6.825-.656-9.231 6.562c-.612-1.531-1.181-3.762-1.181-3.762s-3.544 3.106-1.881 8.269L1.72 10.559c-.306-.044-.394.087-.394.087s-.088.131.175.35c.481.394 9.669 7.175 11.681 8.488-.437 1.575-.437 2.319 0 3.063.612 1.006.656 1.531.569 2.275l-1.05 7.962c-.175.788-2.012 3.587-1.925 4.419s1.225 4.375 2.231 4.769c.744.263 2.581.831 3.806.831.438 0 .831-.087 1.006-.263.744-.656.962-.788 1.488-.788h.131c.219 0 .481.044.788.044.7 0 1.619-.131 2.275-.744.962-.962 2.625-2.275 3.15-2.888.656-.831 1.006-1.969.831-3.106-.131-1.05.438-1.969 1.094-2.887l2.363-3.062c3.019 2.275 4.9 5.731 4.9 9.581 0 6.825-5.95 12.338-13.3 12.338a14.11 14.11 0 0 1-3.325-.394c3.369 1.181 6.213 1.575 8.531 1.575 4.944 0 7.569-1.794 7.569-1.794s-.919 1.181-2.406 2.538h.044c8.181-1.138 12.163-7.875 12.163-7.875s-.306 2.188-.7 3.675c10.894-8.181 9.056-18.419 9.013-18.769.087.131 1.181 1.444 1.75 2.144 1.75-18.025-12.994-23.844-12.994-23.844zM24.426 37.072c-.175.219-.919.875-1.444 1.356s-1.094.962-1.531 1.4c-.175.175-.525.263-1.05.263h-1.312c.656-.875 2.581-2.888 3.238-3.325.788-.525 1.181-1.05.7-1.969s-1.75-.7-1.75-.7.744-.306 1.4-.306c-.831-.219-1.881 0-2.363.481-.525.481-.437 2.188-.656 3.281-.219 1.137-.962 1.706-2.1 2.756-.613.569-1.05.744-1.4.744-.744-.131-1.619-.35-2.231-.569-.437-.569-1.094-2.45-1.269-3.238.131-.437.656-1.356.919-1.881.525-1.006.831-1.575.919-2.1.175-.744.744-5.337.963-7.262.569.744 1.356 1.969 1.181 2.756 1.269-1.794.35-3.544-.087-4.244-.394-.7-.919-2.1-.481-3.587s2.012-5.6 2.012-5.6.525.919 1.269.744 6.737-9.188 6.737-9.188 1.619 3.544-.087 6.125c-1.75 2.581-3.456 3.063-3.456 3.063s2.406.438 4.637-1.181c.919 2.144 1.794 4.375 1.837 4.681l-2.056 4.769c-.087.088-.7.263-1.137.35-.744.219-1.181.35-1.356.481-.306.262-1.706 4.112-2.362 5.994-.788.219-1.575.656-2.144 1.531.306-.219 1.269-.35 1.969-.437.613-.044 2.494.962 2.975 2.844v.087c.088.7-.131 1.356-.481 1.881zm-4.113.525c.394-.569.35-1.531.394-1.837s.131-.875.481-.962 1.181.044 1.181.656c0 .569-.613.7-1.05 1.094-.306.306-.919.962-1.006 1.05zM37.77 29.24c.438-2.231.481-4.156.35-5.731 1.706 2.275 2.756 5.031 3.063 7.875.044.35.394.7.744 1.05.306.263.656.613.656.831a17.59 17.59 0 0 1-.263 3.019c-.044.131-.437.35-.744.525-.437.219-.831.438-.919.788a16.29 16.29 0 0 1-5.775 8.444c4.069-4.244 6.038-11.244 2.888-16.8zm-2.756 17.194c2.844-2.187 5.031-5.25 5.994-8.706.044-.131.438-.35.7-.525.438-.219.875-.481.962-.831a18.22 18.22 0 0 0 .262-3.106c0-.394-.394-.788-.787-1.181-.219-.263-.569-.569-.569-.788-.35-3.194-1.619-6.213-3.587-8.706-.875-5.25-4.375-6.869-4.462-6.912.087.131 2.362 3.412.787 7.263-1.619 3.894-5.775 3.281-6.125 3.325-.35 0-1.706 1.75-3.413 4.988-.219-.087-1.137-.306-2.187-.131.788-2.187 1.969-5.294 2.188-5.556.088-.087.744-.262 1.181-.394.831-.219 1.225-.35 1.356-.525.087-.131.525-1.137.962-2.187.394 0 1.4-.087 1.488-.131.088-.087.919-2.231.919-2.494 0-.219-1.706-4.462-2.363-6.081.306-.35.613-.787.919-1.269 8.969.963 15.969 8.575 15.969 17.806 0 7.087-4.156 13.256-10.194 16.144zM23.376 22.809c.831-.963.394-2.756-1.137-3.062.394-.919.962-2.756.962-2.756l-4.856 7.131c-.394.131-.787-1.4-.787-1.4-.831 3.194 1.4 3.631 1.662 2.625 1.225-.306 3.325-1.619 4.156-2.537z" fill="#1b314f"/><path d="M19.57 24.516l2.275-3.894s1.313.656.656 1.706c-.831 1.225-2.931 2.188-2.931 2.188z" fill="#ffd923"/><path d="M47.701 42.541c-.656.875-1.4 1.794-2.275 2.669 5.644-10.85.263-20.781.044-21.175a28.91 28.91 0 0 1 1.138 1.225c4.331 4.813 4.856 12.031 1.094 17.281zm5.25-13.957c-1.969-5.294-4.769-9.8-10.937-13.869-5.95-3.937-12.338-3.631-12.688-3.588h-.087a3.64 3.64 0 0 1 .656-.175c1.356-.437 3.106-.787 4.856-1.006 4.638-.656 9.319.919 12.513 4.287l.087.088c3.631 3.85 5.512 8.663 5.6 14.263zM40.614 6.928c-6.519-1.225-10.719-.612-13.737.525-.088-.35-.394-1.05-.656-1.619-.919 1.094-1.881 2.406-2.494 3.238-1.662 1.137-2.362 2.231-2.362 2.231.962-3.281 3.762-5.731 7.175-6.344.963-.175 2.013-.263 3.15-.263 3.019.044 6.038.788 8.925 2.231zm-24.106 8.4c-5.119-.175-3.412-6.125-3.325-6.475 0 .044.35 4.681 3.325 6.475zm5.031-10.719c-3.937 2.362-3.15 8.006-3.15 8.006-3.762-5.731 2.844-7.875 3.15-8.006z" fill="#d82122"/><path d="M15.064 16.903c.262.219.525.613.219 1.181-.175.306-.437.262-.831.088-.525-.263-3.675-2.1-6.519-3.981l7.044 2.625.088.087z" fill="#fff"/><defs /></svg>
